<!-- Generated by IcoMoon.io -->
<svg version="1.1" xmlns="http://www.w3.org/2000/svg" width="24" height="28" viewBox="0 0 24 28">
<title>check-circle</title>
<path d="M18.297 12.703l-6.594 6.594c-0.391 0.391-1.016 0.391-1.406 0l-4.594-4.594c-0.391-0.391-0.391-1.016 0-1.406l1.594-1.594c0.391-0.391 1.016-0.391 1.406 0l2.297 2.297 4.297-4.297c0.391-0.391 1.016-0.391 1.406 0l1.594 1.594c0.391 0.391 0.391 1.016 0 1.406zM20.5 14c0-4.688-3.813-8.5-8.5-8.5s-8.5 3.813-8.5 8.5 3.813 8.5 8.5 8.5 8.5-3.813 8.5-8.5zM24 14c0 6.625-5.375 12-12 12s-12-5.375-12-12 5.375-12 12-12 12 5.375 12 12z"></path>
</svg>
