<!-- Generated by IcoMoon.io -->
<svg version="1.1" xmlns="http://www.w3.org/2000/svg" width="32" height="32" viewBox="0 0 32 32">
<title>icon-admin</title>
<path d="M9.856 15.872c-2.56-1.28-4.288-3.84-4.288-6.912 0-4.224 3.456-7.68 7.68-7.68s7.68 3.456 7.68 7.68c0 4.16-3.264 7.552-7.424 7.68h-0.064c-6.336 0-11.52 5.184-11.52 11.52 0 0.384-0.256 0.64-0.64 0.64s-0.64-0.256-0.64-0.64c0-5.824 3.904-10.752 9.216-12.288zM13.248 15.36c3.52 0 6.4-2.88 6.4-6.4s-2.88-6.4-6.4-6.4-6.4 2.88-6.4 6.4 2.88 6.4 6.4 6.4zM30.784 19.584l0.128 0.32-1.536 1.856c-0.256 0.32-0.256 0.832 0 1.152l1.536 1.792-0.128 0.32c-0.32 0.896-0.768 1.792-1.408 2.496l-0.256 0.256-2.368-0.384c-0.384-0.064-0.832 0.192-0.96 0.576l-0.832 2.304-0.32 0.064c-1.216 0.256-2.432 0.256-3.648 0l-0.384-0.064-0.768-2.24c-0.128-0.384-0.576-0.64-0.96-0.576l-2.432 0.384-0.256-0.256c-0.32-0.32-0.576-0.704-0.768-1.088-0.256-0.448-0.512-0.96-0.64-1.472l-0.128-0.32 1.6-1.792c0.256-0.32 0.256-0.832 0-1.088l-1.536-1.856 0.128-0.32c0.32-0.96 0.832-1.792 1.472-2.56l0.256-0.256 2.304 0.384c0.384 0.064 0.832-0.192 1.024-0.576l0.832-2.24 0.32-0.064c1.152-0.256 2.368-0.256 3.584 0l0.384 0.064 0.768 2.176c0.128 0.384 0.576 0.704 1.024 0.64l2.368-0.32 0.256 0.256c0.32 0.384 0.576 0.704 0.768 1.152 0.192 0.32 0.384 0.832 0.576 1.28zM28.992 18.816c-0.128-0.256-0.256-0.448-0.448-0.704l-1.664 0.192c-1.024 0.128-2.048-0.512-2.368-1.472l-0.512-1.472c-0.768-0.128-1.536-0.128-2.304 0l-0.576 1.536c-0.32 0.96-1.408 1.6-2.432 1.408l-1.6-0.256c-0.384 0.448-0.64 1.024-0.896 1.536l1.088 1.28c0.64 0.768 0.64 1.984 0 2.752l-1.088 1.28c0.128 0.32 0.256 0.576 0.448 0.896 0.128 0.256 0.256 0.448 0.448 0.64l1.728-0.256c1.024-0.128 2.048 0.512 2.368 1.472l0.512 1.536c0.768 0.128 1.6 0.128 2.368 0l0.576-1.6c0.32-0.96 1.408-1.6 2.368-1.408l1.6 0.256c0.32-0.448 0.64-0.96 0.832-1.536l-1.024-1.216c-0.64-0.768-0.704-1.984-0.064-2.752l1.088-1.28c-0.128-0.256-0.256-0.512-0.448-0.832zM22.848 25.216c-1.6 0-2.88-1.28-2.88-2.88s1.28-2.88 2.88-2.88 2.88 1.28 2.88 2.88-1.344 2.88-2.88 2.88zM22.848 23.936c0.896 0 1.6-0.704 1.6-1.6s-0.704-1.6-1.6-1.6-1.6 0.704-1.6 1.6 0.704 1.6 1.6 1.6z"></path>
</svg>
