<!-- Generated by IcoMoon.io -->
<svg version="1.1" xmlns="http://www.w3.org/2000/svg" width="32" height="32" viewBox="0 0 32 32">
<title>order-icon</title>
<path d="M8.218 6.666v1.978h12.88v-1.978c0-0.378-0.304-0.682-0.682-0.682h-3.136v-3.45c0-1.222-0.992-2.214-2.214-2.214h-0.63c-1.222 0-2.211 0.992-2.211 2.214v3.45h-3.325c-0.374 0.003-0.682 0.307-0.682 0.682zM14.806 3.040c0.509 0 0.918 0.413 0.918 0.918s-0.413 0.918-0.918 0.918-0.918-0.413-0.918-0.918c-0.003-0.509 0.41-0.918 0.918-0.918z"></path>
<path d="M7.469 28.387c-0.771 0-1.395-0.538-1.395-1.203v-21.206c0-0.662 0.624-1.203 1.395-1.203h3.949v-1.584h-5.162c-0.899 0-1.626 0.611-1.626 1.363v24.054c0 0.752 0.726 1.363 1.626 1.363h7.213c-0.614-0.55-1.197-0.992-2.154-1.584h-3.846z"></path>
<path d="M24.707 4.554c0-0.752-0.726-1.363-1.626-1.363h-4.883v1.584h3.67c0.771 0 1.395 0.538 1.395 1.203v9.696c0.454-0.422 0.938-0.838 1.443-1.235v-9.885z"></path>
<path d="M23.264 26.662v0.522c0 0.662-0.624 1.203-1.395 1.203h-0.173c-0.403 0.48-0.822 1.008-1.258 1.584h2.643c0.899 0 1.626-0.611 1.626-1.363v-3.264c-0.458 0.378-0.938 0.81-1.443 1.318z"></path>
<path d="M14.506 22.57l2.557 4.598c0 0 4.496-10.016 9.862-12.061-0.205 2.707-0.285 5.366 0.445 6.032-1.571 0.666-6.477 4.682-9.952 10.544-3.27-3.184-3.27-3.898-7.616-6.096 2.71-1.741 4.704-3.018 4.704-3.018z"></path>
<path d="M8.595 13.014h4.378v0.614h-4.378v-0.614z"></path>
<path d="M8.595 11.616h4.378v0.614h-4.378v-0.614z"></path>
<path d="M8.595 14.787h12.301v0.614h-12.301v-0.614z"></path>
<path d="M8.595 16.592h12.301v0.614h-12.301v-0.614z"></path>
<path d="M8.595 18.397h12.301v0.614h-12.301v-0.614z"></path>
</svg>
