<!-- Generated by IcoMoon.io -->
<svg version="1.1" xmlns="http://www.w3.org/2000/svg" width="32" height="32" viewBox="0 0 32 32">
<title>search-icon</title>
<path d="M20.431 20.514c0.478-0.474 0.881-1.023 1.192-1.626l0.017-0.036 9.796 9.796c0.239 0.229 0.407 0.531 0.466 0.87l0.001 0.009c0.011 0.054 0.018 0.116 0.018 0.18 0 0.238-0.090 0.455-0.238 0.618l0.001-0.001-1.443 1.374c-0.153 0.149-0.363 0.241-0.594 0.241-0.067 0-0.132-0.008-0.195-0.022l0.006 0.001c-0.354-0.048-0.662-0.213-0.893-0.453l-9.797-9.797c0.638-0.313 1.186-0.699 1.665-1.156l-0.002 0.002z"></path>
<path d="M7.103 6.829c0.135-0.128 0.218-0.308 0.218-0.508s-0.084-0.38-0.218-0.508l-0-0c-0.129-0.134-0.309-0.218-0.508-0.22h-0c-0.001 0-0.003-0-0.005-0-0.199 0-0.378 0.084-0.503 0.219l-0 0c-1.425 1.381-2.309 3.312-2.309 5.449 0 0.041 0 0.081 0.001 0.121l-0-0.006c-0 0.021-0 0.046-0 0.070 0 2.13 0.884 4.054 2.306 5.423l0.002 0.002c0.126 0.14 0.306 0.229 0.508 0.234h0.001c0.009 0 0.019 0.001 0.030 0.001 0.184 0 0.351-0.068 0.479-0.18l-0.001 0.001c0.134-0.126 0.217-0.304 0.217-0.502s-0.083-0.376-0.217-0.501l-0-0c-1.162-1.121-1.883-2.692-1.883-4.432 0-0.041 0-0.082 0.001-0.122l-0 0.006c-0.001-0.034-0.001-0.073-0.001-0.113 0-1.745 0.721-3.321 1.882-4.448l0.002-0.002z"></path>
<path d="M11.432 0c-0.060-0.001-0.13-0.002-0.201-0.002-3.095 0-5.891 1.279-7.889 3.338l-0.003 0.003c-2.061 2-3.341 4.797-3.341 7.892 0 0.071 0.001 0.141 0.002 0.212l-0-0.011c-0.001 0.044-0.001 0.095-0.001 0.147 0 3.095 1.279 5.891 3.337 7.888l0.003 0.003c2.014 2.070 4.827 3.354 7.939 3.354 0.054 0 0.108-0 0.162-0.001l-0.008 0c0.040 0.001 0.087 0.001 0.134 0.001 3.101 0 5.903-1.284 7.901-3.35l0.003-0.003c2.069-2.001 3.354-4.803 3.354-7.905 0-0.066-0.001-0.132-0.002-0.198l0 0.010c0-0.030 0-0.064 0-0.099 0-3.112-1.284-5.924-3.35-7.936l-0.002-0.002c-2-2.061-4.796-3.34-7.891-3.34-0.052 0-0.103 0-0.155 0.001l0.008-0zM18.095 18.095c-1.721 1.723-4.1 2.789-6.727 2.789-5.251 0-9.508-4.257-9.508-9.508s4.257-9.508 9.508-9.508c2.628 0 5.006 1.066 6.727 2.789l0 0c1.718 1.72 2.78 4.095 2.78 6.719s-1.062 4.999-2.781 6.719l0-0z"></path>
</svg>
